<?xml version="1.0" standalone="no"?>
<!DOCTYPE svg PUBLIC "-//W3C//DTD SVG 20010904//EN"
 "http://www.w3.org/TR/2001/REC-SVG-20010904/DTD/svg10.dtd">
<svg version="1.0" xmlns="http://www.w3.org/2000/svg"
 width="512.000000pt" height="512.000000pt" viewBox="0 0 512.000000 512.000000"
 preserveAspectRatio="xMidYMid meet">

<g transform="translate(0.000000,512.000000) scale(0.100000,-0.100000)"
fill="#000000" stroke="none">
<path d="M2536 5049 c-18 -137 -100 -408 -182 -606 -141 -337 -257 -535 -523
-888 -118 -157 -203 -258 -402 -478 l-127 -139 47 -42 c27 -22 88 -75 137
-116 118 -100 248 -210 364 -309 52 -45 97 -81 101 -81 15 0 436 476 553 628
27 34 52 62 57 62 4 0 40 -44 80 -97 147 -197 492 -597 510 -591 4 2 43 33 86
70 43 36 185 157 316 267 130 111 237 205 237 209 0 4 -19 28 -43 53 -38 41
-127 140 -232 259 -97 109 -240 287 -313 389 -166 234 -227 331 -326 516 -159
298 -266 599 -308 864 -7 45 -15 81 -19 81 -3 0 -9 -23 -13 -51z"/>
<path d="M949 2552 c-251 -253 -331 -336 -528 -547 -199 -213 -330 -445 -387
-685 -89 -379 21 -827 296 -1202 l57 -78 0 103 c0 184 43 348 147 557 125 249
284 466 596 809 121 134 93 105 458 473 l283 286 -48 45 c-26 25 -67 61 -91
80 -23 20 -57 49 -75 65 -17 17 -59 54 -92 84 -32 29 -111 100 -175 157 -63
58 -124 113 -135 123 -21 17 -25 13 -306 -270z"/>
<path d="M3795 2759 c-49 -45 -160 -143 -245 -218 -213 -187 -295 -263 -295
-272 0 -4 128 -138 285 -296 628 -634 883 -946 1045 -1278 104 -213 150 -395
143 -568 l-3 -89 27 33 c154 184 304 514 343 751 19 120 19 321 0 434 -35 204
-135 426 -270 599 -73 94 -316 352 -642 683 l-298 303 -90 -82z"/>
<path d="M1951 2182 c-45 -48 -379 -398 -419 -439 -16 -16 -11 -22 133 -180
159 -174 184 -202 267 -308 43 -55 91 -116 107 -135 43 -55 164 -236 221 -334
52 -89 120 -228 166 -340 27 -67 104 -364 104 -402 0 -56 17 -17 38 89 96 472
364 900 964 1541 l48 50 -33 34 c-17 18 -132 135 -254 260 l-222 227 -26 -30
c-15 -16 -43 -48 -63 -70 -107 -116 -330 -388 -398 -484 -16 -22 -32 -41 -35
-41 -3 0 -42 46 -86 103 -77 97 -256 309 -298 353 -11 11 -49 52 -84 92 -36
40 -67 72 -70 72 -3 -1 -30 -26 -60 -58z"/>
</g>
</svg>
